<svg width="174" height="36" viewBox="0 0 174 36" fill="none" xmlns="http://www.w3.org/2000/svg">
<g clip-path="url(#clip0_65_231)">
<g clip-path="url(#clip1_65_231)">
<path fill-rule="evenodd" clip-rule="evenodd" d="M18.1562 0C24.8848 0 30.7584 3.6286 33.8949 9.01965L26.402 12.5537C23.7345 8.58746 18.4746 7.03637 13.9826 9.11298C9.43344 11.216 7.2529 16.309 8.71147 20.9312C5.15972 22.9021 2.97889 24.4381 3.20877 24.9268C3.57343 25.7021 9.87315 23.5645 17.5519 20.0948L17.3461 19.7414C17.3096 19.6787 17.2997 19.6043 17.3186 19.5344L17.3603 19.3801C17.3792 19.3102 17.3693 19.2358 17.3328 19.1731L16.9084 18.4443C16.773 18.2118 16.8533 17.9145 17.0879 17.7803C17.1776 17.729 17.2814 17.7071 17.3845 17.7179L19.8811 17.9792C20.0545 17.9974 20.2293 17.9606 20.3804 17.8741L21.1191 17.4513C21.2733 17.3631 21.4409 17.3001 21.6153 17.2649C22.3771 17.1113 22.8197 17.1403 22.943 17.3521C23.0664 17.5639 22.8704 17.9584 22.3553 18.5356C22.2373 18.6678 22.0986 18.7802 21.9444 18.8684L21.2057 19.2913C21.0546 19.3777 20.9351 19.5094 20.8642 19.6674L19.8442 21.9416C19.7342 22.1869 19.4444 22.2973 19.197 22.1883C19.1023 22.1465 19.0234 22.0761 18.9716 21.9871L18.5472 21.2583C18.5107 21.1957 18.4506 21.15 18.3801 21.1312L18.2245 21.0899C18.154 21.0712 18.0939 21.0255 18.0574 20.9628L17.8881 20.672C16.5985 21.6644 14.1353 23.1248 10.9804 24.7694C13.8315 27.7505 18.3912 28.7413 22.3533 26.9096C24.0644 26.1186 25.4404 24.9046 26.4136 23.4517L33.8949 26.9804C30.7584 32.3714 24.8848 36 18.1562 36C8.12882 36 0 27.9411 0 18C0 8.05887 8.12882 0 18.1562 0Z" fill="url(#paint0_linear_65_231)"/>
</g>
<path d="M47.088 10.67C48.088 10.67 49.338 10.81 50.838 11.09L51.588 11.24L51.468 13.82C50.668 13.74 49.978 13.68 49.398 13.64C48.818 13.6 48.338 13.58 47.958 13.58C47.198 13.58 46.568 13.66 46.068 13.82C45.588 13.96 45.198 14.22 44.898 14.6C44.618 14.98 44.418 15.48 44.298 16.1C44.178 16.72 44.118 17.5 44.118 18.44C44.118 19.38 44.168 20.17 44.268 20.81C44.388 21.43 44.588 21.94 44.868 22.34C45.148 22.72 45.538 23 46.038 23.18C46.558 23.34 47.208 23.42 47.988 23.42L51.498 23.18L51.588 25.79C49.588 26.15 48.068 26.33 47.028 26.33C45.888 26.33 44.918 26.18 44.118 25.88C43.338 25.58 42.698 25.12 42.198 24.5C41.718 23.86 41.368 23.04 41.148 22.04C40.928 21.04 40.818 19.84 40.818 18.44C40.818 17.04 40.938 15.85 41.178 14.87C41.418 13.87 41.788 13.06 42.288 12.44C42.788 11.82 43.438 11.37 44.238 11.09C45.038 10.81 45.988 10.67 47.088 10.67ZM60.7195 10.67C63.1195 10.67 64.8295 11.32 65.8495 12.62C66.8895 13.92 67.4095 15.87 67.4095 18.47C67.4095 19.77 67.2895 20.91 67.0495 21.89C66.8095 22.87 66.4295 23.69 65.9095 24.35C65.3895 25.01 64.6995 25.51 63.8395 25.85C62.9995 26.17 61.9595 26.33 60.7195 26.33C59.4995 26.33 58.4595 26.17 57.5995 25.85C56.7395 25.51 56.0495 25.01 55.5295 24.35C55.0095 23.69 54.6295 22.87 54.3895 21.89C54.1495 20.91 54.0295 19.77 54.0295 18.47C54.0295 17.29 54.1395 16.22 54.3595 15.26C54.5795 14.3 54.9395 13.48 55.4395 12.8C55.9595 12.12 56.6495 11.6 57.5095 11.24C58.3695 10.86 59.4395 10.67 60.7195 10.67ZM58.0195 22.37C58.4595 23.17 59.3595 23.57 60.7195 23.57C61.3795 23.57 61.9295 23.48 62.3695 23.3C62.8095 23.1 63.1595 22.79 63.4195 22.37C63.6795 21.95 63.8595 21.42 63.9595 20.78C64.0595 20.12 64.1095 19.34 64.1095 18.44C64.1095 16.62 63.8595 15.33 63.3595 14.57C62.8795 13.81 61.9995 13.43 60.7195 13.43C59.4395 13.43 58.5495 13.81 58.0495 14.57C57.5695 15.33 57.3295 16.62 57.3295 18.44C57.3295 20.24 57.5595 21.55 58.0195 22.37ZM79.6277 4.76H82.8977V26H79.6577V25.22C78.1977 25.96 76.8577 26.33 75.6377 26.33C73.6777 26.33 72.2377 25.74 71.3177 24.56C70.4177 23.38 69.9677 21.4 69.9677 18.62C69.9677 15.84 70.4677 13.82 71.4677 12.56C72.4877 11.3 74.0677 10.67 76.2077 10.67C76.5677 10.67 77.0277 10.7 77.5877 10.76C78.1677 10.82 78.8477 10.92 79.6277 11.06V4.76ZM79.1177 22.88L79.6277 22.67V13.79C79.0277 13.69 78.4477 13.62 77.8877 13.58C77.3477 13.52 76.8177 13.49 76.2977 13.49C74.2777 13.49 73.2677 15.17 73.2677 18.53C73.2677 20.37 73.4977 21.65 73.9577 22.37C74.4377 23.07 75.1877 23.42 76.2077 23.42C77.2277 23.42 78.1977 23.24 79.1177 22.88ZM97.5389 23.3L98.3789 23.21L98.4389 25.64C97.2989 25.86 96.2289 26.03 95.2289 26.15C94.2289 26.27 93.2789 26.33 92.3789 26.33C90.1589 26.33 88.5589 25.72 87.5789 24.5C86.6189 23.28 86.1389 21.33 86.1389 18.65C86.1389 13.33 88.3089 10.67 92.6489 10.67C96.8489 10.67 98.9489 12.96 98.9489 17.54L98.7389 19.88H89.4389C89.4589 21.12 89.7289 22.03 90.2489 22.61C90.7689 23.19 91.7389 23.48 93.1589 23.48C94.5789 23.48 96.0389 23.42 97.5389 23.3ZM89.4089 17.36H95.7389C95.7389 15.86 95.5089 14.82 95.0489 14.24C94.5889 13.66 93.7889 13.37 92.6489 13.37C91.5089 13.37 90.6889 13.68 90.1889 14.3C89.6889 14.9 89.4289 15.92 89.4089 17.36ZM112.563 11.36L112.503 14.09C111.303 13.93 110.273 13.81 109.413 13.73C108.573 13.65 107.893 13.61 107.373 13.61C106.293 13.61 105.553 13.74 105.153 14C104.753 14.24 104.553 14.63 104.553 15.17C104.553 15.71 104.783 16.09 105.243 16.31C105.463 16.41 105.833 16.53 106.353 16.67C106.893 16.79 107.583 16.92 108.423 17.06C109.263 17.2 109.973 17.38 110.553 17.6C111.133 17.82 111.603 18.11 111.963 18.47C112.323 18.81 112.583 19.25 112.743 19.79C112.923 20.31 113.013 20.96 113.013 21.74C113.013 23.32 112.503 24.48 111.483 25.22C110.483 25.96 109.013 26.33 107.073 26.33C106.453 26.33 105.763 26.28 105.003 26.18C104.243 26.1 103.393 25.98 102.453 25.82L101.523 25.67L101.643 22.94C102.843 23.1 103.873 23.22 104.733 23.3C105.613 23.38 106.313 23.42 106.833 23.42C107.913 23.42 108.673 23.29 109.113 23.03C109.553 22.77 109.773 22.34 109.773 21.74C109.773 21.14 109.563 20.72 109.143 20.48C108.923 20.38 108.553 20.27 108.033 20.15C107.533 20.01 106.873 19.87 106.053 19.73C105.233 19.59 104.523 19.43 103.923 19.25C103.343 19.05 102.853 18.79 102.453 18.47C102.073 18.13 101.783 17.71 101.583 17.21C101.403 16.71 101.313 16.07 101.313 15.29C101.313 14.51 101.453 13.84 101.733 13.28C102.013 12.7 102.393 12.22 102.873 11.84C103.373 11.46 103.963 11.18 104.643 11C105.343 10.8 106.103 10.7 106.923 10.7C107.563 10.7 108.273 10.74 109.053 10.82C109.833 10.9 110.693 11.02 111.633 11.18L112.563 11.36ZM119.426 32.45H116.156V11H119.396V11.93C120.776 11.09 122.066 10.67 123.266 10.67C124.266 10.67 125.126 10.82 125.846 11.12C126.566 11.4 127.156 11.86 127.616 12.5C128.076 13.12 128.416 13.93 128.636 14.93C128.876 15.93 128.996 17.14 128.996 18.56C128.996 19.98 128.866 21.19 128.606 22.19C128.366 23.17 127.976 23.97 127.436 24.59C126.896 25.19 126.196 25.63 125.336 25.91C124.496 26.19 123.476 26.33 122.276 26.33C121.456 26.33 120.506 26.24 119.426 26.06V32.45ZM122.696 13.58C121.756 13.58 120.816 13.79 119.876 14.21L119.426 14.42V23.27C119.826 23.35 120.246 23.41 120.686 23.45C121.126 23.49 121.586 23.51 122.066 23.51C122.746 23.51 123.316 23.42 123.776 23.24C124.236 23.04 124.606 22.74 124.886 22.34C125.166 21.92 125.366 21.39 125.486 20.75C125.606 20.09 125.666 19.29 125.666 18.35C125.666 15.17 124.676 13.58 122.696 13.58ZM143.369 15.62V22.46C143.389 22.9 143.499 23.23 143.699 23.45C143.919 23.65 144.249 23.78 144.689 23.84L144.599 26.33C142.859 26.33 141.529 25.96 140.609 25.22C139.049 25.96 137.439 26.33 135.779 26.33C132.799 26.33 131.309 24.74 131.309 21.56C131.309 20.04 131.709 18.94 132.509 18.26C133.309 17.58 134.559 17.17 136.259 17.03L140.129 16.7V15.62C140.129 14.82 139.949 14.26 139.589 13.94C139.249 13.62 138.739 13.46 138.059 13.46C137.419 13.46 136.699 13.48 135.899 13.52C135.099 13.56 134.219 13.62 133.259 13.7L132.299 13.76L132.179 11.45C134.419 10.93 136.429 10.67 138.209 10.67C140.049 10.67 141.369 11.06 142.169 11.84C142.969 12.62 143.369 13.88 143.369 15.62ZM140.129 19.01L136.649 19.34C135.269 19.46 134.579 20.21 134.579 21.59C134.579 22.97 135.189 23.66 136.409 23.66C137.449 23.66 138.509 23.5 139.589 23.18L140.129 23V19.01ZM153.084 10.67C154.084 10.67 155.334 10.81 156.834 11.09L157.584 11.24L157.464 13.82C156.664 13.74 155.974 13.68 155.394 13.64C154.814 13.6 154.334 13.58 153.954 13.58C153.194 13.58 152.564 13.66 152.064 13.82C151.584 13.96 151.194 14.22 150.894 14.6C150.614 14.98 150.414 15.48 150.294 16.1C150.174 16.72 150.114 17.5 150.114 18.44C150.114 19.38 150.164 20.17 150.264 20.81C150.384 21.43 150.584 21.94 150.864 22.34C151.144 22.72 151.534 23 152.034 23.18C152.554 23.34 153.204 23.42 153.984 23.42L157.494 23.18L157.584 25.79C155.584 26.15 154.064 26.33 153.024 26.33C151.884 26.33 150.914 26.18 150.114 25.88C149.334 25.58 148.694 25.12 148.194 24.5C147.714 23.86 147.364 23.04 147.144 22.04C146.924 21.04 146.814 19.84 146.814 18.44C146.814 17.04 146.934 15.85 147.174 14.87C147.414 13.87 147.784 13.06 148.284 12.44C148.784 11.82 149.434 11.37 150.234 11.09C151.034 10.81 151.984 10.67 153.084 10.67ZM171.426 23.3L172.266 23.21L172.326 25.64C171.186 25.86 170.116 26.03 169.116 26.15C168.116 26.27 167.166 26.33 166.266 26.33C164.046 26.33 162.446 25.72 161.466 24.5C160.506 23.28 160.026 21.33 160.026 18.65C160.026 13.33 162.196 10.67 166.536 10.67C170.736 10.67 172.836 12.96 172.836 17.54L172.626 19.88H163.326C163.346 21.12 163.616 22.03 164.136 22.61C164.656 23.19 165.626 23.48 167.046 23.48C168.466 23.48 169.926 23.42 171.426 23.3ZM163.296 17.36H169.626C169.626 15.86 169.396 14.82 168.936 14.24C168.476 13.66 167.676 13.37 166.536 13.37C165.396 13.37 164.576 13.68 164.076 14.3C163.576 14.9 163.316 15.92 163.296 17.36Z" fill="#0A1F2D"/>
</g>
<defs>
<linearGradient id="paint0_linear_65_231" x1="5.5" y1="5.5" x2="31" y2="29" gradientUnits="userSpaceOnUse">
<stop stop-color="#FF6AD9"/>
<stop offset="0.494792" stop-color="#0276FF"/>
<stop offset="1" stop-color="#00F1DF"/>
</linearGradient>
<clipPath id="clip0_65_231">
<rect width="174" height="36" fill="white"/>
</clipPath>
<clipPath id="clip1_65_231">
<rect width="33.9604" height="36" fill="white"/>
</clipPath>
</defs>
</svg>
