<svg width="186" height="36" viewBox="0 0 186 36" fill="none" xmlns="http://www.w3.org/2000/svg">
<g clip-path="url(#clip0_62_73)">
<path d="M69.2055 7.95705H65.7405C65.6126 7.95936 65.4906 8.01118 65.4002 8.10162C65.3098 8.19205 65.2579 8.31405 65.2556 8.44192V15.5598C63.8381 13.8835 61.9009 13.0263 59.4045 13.0263C57.7643 13.0263 56.3108 13.3975 55.1183 14.1063C53.9096 14.7982 52.9362 15.8367 52.3238 17.0875C51.6521 18.3554 51.354 19.7707 51.354 21.4109C51.354 23.05 51.6904 24.5047 52.3238 25.6972C52.9943 26.9268 53.8886 27.8572 55.044 28.4917C56.1994 29.1622 57.5033 29.4603 58.9939 29.4603C60.3731 29.4603 61.6039 29.1993 62.6839 28.7155C63.7589 28.2533 64.6868 27.5055 65.367 26.5533V28.4917C65.367 28.7527 65.5909 28.9754 65.8508 28.9754H69.2055C69.4665 28.9754 69.6893 28.7527 69.6893 28.4917V8.44192C69.6867 8.31443 69.6349 8.19289 69.5447 8.10272C69.4545 8.01256 69.333 7.96076 69.2055 7.95817V7.95705ZM65.2545 21.709C65.2545 22.2682 65.1431 22.789 64.9564 23.311C64.7388 23.818 64.4368 24.2844 64.0631 24.6903C63.6081 25.1471 63.0618 25.5029 62.46 25.7343C61.8266 25.957 61.1933 26.1055 60.4845 26.1055C59.031 26.1055 57.9139 25.6972 57.0938 24.8399C56.2736 24.0187 55.8641 22.8262 55.8641 21.3367C55.8641 19.7335 56.2736 18.5039 57.0938 17.6838C57.9139 16.8648 59.1064 16.4542 60.6341 16.4542C62.0876 16.4542 63.243 16.8648 64.0249 17.722C64.4355 18.1315 64.7336 18.6164 64.9564 19.1744C65.1814 19.7335 65.2928 20.3298 65.2928 20.926V21.709H65.2545V21.709ZM87.912 15.112C86.3843 13.7339 84.2603 13.0252 81.4658 13.0252C79.6388 13.0252 78.0356 13.3987 76.6946 14.1052C75.3803 14.7868 74.2926 15.8359 73.5638 17.1247C72.855 18.3914 72.4838 19.8449 72.4838 21.4852C72.4838 24.0198 73.2656 25.9942 74.8316 27.4105C76.3954 28.8269 78.5576 29.5345 81.3904 29.5345C83.8496 29.5345 85.8251 29.0879 87.2404 28.2295C88.5454 27.4477 89.4026 26.2552 89.8875 24.6903C89.9618 24.4664 89.775 24.2425 89.5523 24.2425H86.1233C85.9736 24.2425 85.8623 24.3179 85.8251 24.4664C85.2289 25.7332 83.8125 26.3677 81.6143 26.3677C80.6445 26.3677 79.8255 26.1809 79.1168 25.8457C78.408 25.5104 77.8118 25.0244 77.4023 24.4664C76.9828 23.8658 76.7614 23.1492 76.7689 22.4167H89.5523C89.6356 22.4174 89.7183 22.4016 89.7955 22.37C89.8727 22.3384 89.9428 22.2918 90.0018 22.2328C90.0608 22.1739 90.1074 22.1037 90.1389 22.0266C90.1705 21.9494 90.1864 21.8667 90.1856 21.7833V21.0745C90.1856 18.4668 89.4026 16.4913 87.912 15.112V15.112ZM76.806 19.6222C76.9185 18.6153 77.4023 17.7952 78.2595 17.1618C79.1168 16.4913 80.1608 16.1932 81.3904 16.1932C82.8439 16.1932 83.9621 16.4913 84.7811 17.0875C85.6024 17.6838 86.0119 18.541 86.049 19.6222H76.806ZM124.77 13.2119C122.535 13.2119 120.671 14.1445 119.143 16.0075V13.9578C119.141 13.8301 119.089 13.7084 118.998 13.6182C118.908 13.528 118.786 13.4763 118.658 13.474H115.305C115.177 13.4763 115.055 13.528 114.965 13.6182C114.874 13.7084 114.822 13.8301 114.82 13.9578V28.5288C114.82 28.7898 115.044 29.0125 115.305 29.0125H118.771C118.898 29.0102 119.02 28.9586 119.111 28.8684C119.201 28.7782 119.253 28.6565 119.256 28.5288V20.8518C119.256 19.8089 119.702 18.9145 120.597 18.1315C121.565 17.3114 122.796 16.8648 124.287 16.8648C124.472 16.8648 124.659 16.8648 124.883 16.9019C125.218 16.939 125.479 16.678 125.479 16.3428V13.771C125.475 13.6239 125.415 13.4839 125.311 13.3798C125.207 13.2757 125.067 13.2156 124.92 13.2119H124.77V13.2119ZM142.175 15.0749C140.648 13.6957 138.524 12.988 135.728 12.988C133.902 12.988 132.3 13.3604 130.958 14.068C129.644 14.7498 128.557 15.7989 127.828 17.0875C127.119 18.3543 126.747 19.8078 126.747 21.448C126.747 23.9815 127.53 25.957 129.095 27.3734C130.66 28.7898 132.822 29.4974 135.654 29.4974C138.114 29.4974 140.088 29.0497 141.505 28.1924C142.809 27.4105 143.666 26.218 144.151 24.6532C144.225 24.4282 144.039 24.2054 143.815 24.2054H140.387C140.238 24.2054 140.126 24.2797 140.088 24.4293C139.492 25.696 138.076 26.3305 135.878 26.3305C134.909 26.3305 134.089 26.1438 133.381 25.8085C132.672 25.4722 132.076 24.9873 131.667 24.4293C131.247 23.8288 131.025 23.1121 131.033 22.3795H143.927C144.01 22.3803 144.093 22.3644 144.17 22.3329C144.247 22.3013 144.317 22.2547 144.376 22.1957C144.435 22.1367 144.482 22.0666 144.514 21.9894C144.545 21.9123 144.561 21.8296 144.56 21.7462V21.0374C144.449 18.4285 143.704 16.4542 142.175 15.0749V15.0749ZM131.07 19.5839C131.182 18.5782 131.667 17.758 132.524 17.1247C133.381 16.4542 134.424 16.156 135.654 16.156C137.107 16.156 138.225 16.4542 139.046 17.0504C139.865 17.6467 140.275 18.5039 140.312 19.5839H131.07ZM162.413 15.0749C160.884 13.6957 158.76 12.988 155.966 12.988C154.14 12.988 152.537 13.3604 151.196 14.068C149.881 14.7497 148.793 15.7988 148.065 17.0875C147.357 18.3543 146.984 19.8078 146.984 21.448C146.984 23.9815 147.766 25.957 149.331 27.3734C150.897 28.7898 153.059 29.4974 155.89 29.4974C158.351 29.4974 160.326 29.0497 161.741 28.1924C163.046 27.4105 163.904 26.218 164.387 24.6532C164.463 24.4282 164.276 24.2054 164.052 24.2054H160.624C160.475 24.2054 160.363 24.2797 160.326 24.4293C159.73 25.696 158.313 26.3305 156.114 26.3305C155.145 26.3305 154.325 26.1438 153.618 25.8085C152.909 25.4722 152.313 24.9873 151.903 24.4293C151.484 23.8286 151.262 23.1121 151.27 22.3795H164.165C164.248 22.3803 164.331 22.3644 164.408 22.3329C164.485 22.3013 164.555 22.2547 164.614 22.1957C164.673 22.1367 164.72 22.0666 164.751 21.9894C164.783 21.9123 164.799 21.8296 164.798 21.7462V21.0374C164.685 18.4285 163.904 16.4542 162.413 15.0749V15.0749ZM151.307 19.5839C151.418 18.5782 151.903 17.758 152.76 17.1247C153.618 16.4542 154.661 16.156 155.89 16.156C157.344 16.156 158.462 16.4542 159.282 17.0504C160.102 17.6467 160.512 18.5039 160.549 19.5839H151.307ZM185.106 7.91992H181.64C181.513 7.92222 181.391 7.97389 181.3 8.06409C181.21 8.15428 181.158 8.27599 181.155 8.40367V15.5227C179.739 13.8464 177.802 12.988 175.304 12.988C173.665 12.988 172.212 13.3615 171.019 14.0692C169.81 14.7614 168.837 15.7997 168.223 17.0504C167.553 18.3172 167.255 19.7335 167.255 21.3738C167.255 23.0129 167.59 24.4675 168.223 25.66C168.895 26.8897 169.79 27.82 170.945 28.4545C172.1 29.125 173.404 29.4232 174.895 29.4232C176.274 29.4232 177.504 29.1622 178.585 28.6773C179.659 28.2152 180.587 27.4683 181.268 26.5173V28.4917C181.268 28.7527 181.491 28.9754 181.752 28.9754H185.106C185.366 28.9754 185.59 28.7527 185.59 28.4917V8.4048C185.592 8.34076 185.581 8.27702 185.557 8.21749C185.533 8.15795 185.498 8.10388 185.453 8.05858C185.407 8.01328 185.353 7.97772 185.294 7.95407C185.234 7.93042 185.17 7.91918 185.106 7.92105V7.91992ZM181.192 21.6719C181.192 22.231 181.081 22.7519 180.894 23.2739C180.677 23.7813 180.375 24.2478 180 24.6532C179.545 25.1096 178.999 25.465 178.398 25.696C177.765 25.921 177.131 26.0695 176.423 26.0695C174.969 26.0695 173.851 25.6589 173.032 24.8017C172.212 23.9827 171.802 22.7902 171.802 21.2984C171.802 19.6964 172.212 18.4668 173.032 17.6467C173.851 16.8265 175.044 16.417 176.572 16.417C178.026 16.417 179.181 16.8265 179.963 17.6838C180.374 18.0944 180.672 18.5782 180.894 19.1373C181.117 19.6945 181.23 20.289 181.23 20.8889V21.6719H181.192V21.6719ZM110.572 13.4729H107.218C107.09 13.4752 106.969 13.5269 106.878 13.6171C106.788 13.7073 106.736 13.829 106.733 13.9567V15.5598C106.025 14.7025 105.206 14.032 104.274 13.6225C103.304 13.2119 102.149 12.9892 100.808 12.9892C99.2048 12.9892 97.7895 13.3244 96.5599 14.032C95.3291 14.7025 94.3976 15.6723 93.7271 16.8277C93.0566 18.0202 92.7214 19.3612 92.7214 20.8518C92.7214 22.3053 93.0195 23.572 93.5775 24.6903C93.6158 24.7657 93.6529 24.8399 93.7271 24.9513C94.3976 26.1067 95.292 27.001 96.4474 27.6344C97.0065 27.9325 97.5656 28.1564 98.1619 28.3049C98.8324 28.4917 99.5783 28.5659 100.36 28.5659C101.217 28.5659 102 28.4917 102.745 28.3049C103.193 28.1935 103.602 28.045 104.013 27.8954C105.046 27.4683 105.956 26.7891 106.659 25.9199V28.3432C106.631 29.0701 106.413 29.7769 106.026 30.3929C105.615 30.9892 105.019 31.4729 104.311 31.8082C103.843 32.0402 103.339 32.1916 102.821 32.2559C102.485 32.293 102.112 32.3302 101.741 32.3302C99.5029 32.3302 98.0505 31.6968 97.4171 30.3918C97.3977 30.338 97.3623 30.2914 97.3156 30.2582C97.269 30.225 97.2134 30.2069 97.1561 30.2062H93.5775C93.3176 30.2062 93.168 30.43 93.2063 30.6899C93.69 32.293 94.5844 33.4855 95.8883 34.3057C97.3418 35.2 99.3173 35.6467 101.851 35.6467C103.715 35.6467 105.354 35.3485 106.659 34.7152C106.726 34.6861 106.788 34.6483 106.845 34.6027C107.51 34.2984 108.125 33.8964 108.672 33.4102C110.05 32.1434 110.832 30.4672 110.981 28.3049C111.057 27.7469 111.057 27.1507 111.057 26.5544V13.9938C111.057 13.6957 110.832 13.4718 110.573 13.4718L110.572 13.4729ZM97.3046 19.9203C97.4543 18.9517 97.8638 18.1687 98.4971 17.5724C99.3173 16.7894 100.51 16.417 102 16.417C103.491 16.417 104.609 16.7894 105.354 17.5353C106.063 18.244 106.472 19.063 106.585 19.9574C106.622 20.1442 106.622 20.3298 106.622 20.5165V21.0385C106.622 22.0443 106.324 22.9015 105.728 23.572C105.615 23.6845 105.503 23.833 105.354 23.9455C104.945 24.355 104.423 24.6543 103.79 24.877C103.156 25.1029 102.487 25.2164 101.814 25.2123C100.36 25.2123 99.243 24.8399 98.4229 24.0198C98.2799 23.9017 98.1546 23.7638 98.0505 23.6103C97.4914 22.8644 97.1933 21.9329 97.1933 20.7775C97.2675 20.4794 97.2675 20.2184 97.3058 19.9203H97.3046Z" fill="#0A1F2D"/>
<path d="M42.6713 13.9939L29.3287 6.65437L28.8821 6.39336C28.5024 6.24402 28.0977 6.16806 27.6896 6.16949C27.2801 6.16949 26.8695 6.24374 26.4971 6.39336L25.9763 6.69149L23.8883 7.84687C23.8511 7.88399 23.8511 7.92112 23.8883 7.95937L24.7455 8.40599L29.7765 11.1634L32.7578 12.8036C32.7578 12.8036 28.3612 12.9892 24.2977 15.3371C23.5537 15.7788 22.7038 16.0105 21.8385 16.0076H21.6529C20.7876 16.0105 19.9377 15.7788 19.1936 15.3371C15.1313 12.9892 10.7336 12.8036 10.7336 12.8036L21.7271 6.72862L25.6399 4.53037C26.0505 4.30537 27.4669 3.41212 29.0689 3.89587C29.7776 4.08262 30.9701 4.75311 31.9376 5.31336C32.314 5.53553 32.7573 5.61622 33.1878 5.54096C33.6183 5.4657 34.0079 5.23942 34.2866 4.90274C34.5746 4.55763 34.7326 4.12258 34.7333 3.67312C34.7333 3.03974 34.4351 2.44349 33.8389 2.06999C32.5721 1.28812 30.8205 0.35549 29.4041 0.13274C25.7524 -0.500635 23.4416 1.28812 21.69 2.21962C20.3479 1.13962 17.6288 -0.46351 14.013 0.13274C12.5595 0.392615 10.845 1.28699 9.57825 2.06887C8.60963 2.66512 8.38575 4.00724 9.1305 4.86449C9.504 5.27399 10.0249 5.49786 10.548 5.49786C10.8821 5.49786 11.1803 5.42362 11.4784 5.23687C12.4481 4.67774 13.6406 4.00724 14.3483 3.82049C16.2495 3.29849 17.8886 4.52924 17.8886 4.52924L0.70875 13.9939C0.261 14.2166 0 14.7026 0 15.1864V17.5342C0 18.018 0.261 18.4657 0.70875 18.7267C1.15538 18.9495 1.26787 19.0991 1.26787 19.9564C1.26787 21.447 0.261 29.6089 10.9204 29.6089C20.4975 29.6089 19.305 20.2545 21.69 20.2916C24.1121 20.2545 22.9196 29.6089 32.4596 29.6089C43.119 29.6089 42.1121 21.447 42.1121 19.9564C42.1121 19.0991 42.1864 18.9877 42.6341 18.7267C43.0819 18.5029 43.3429 18.018 43.3429 17.5342V15.1864C43.3572 14.9441 43.3014 14.7028 43.1823 14.4914C43.0633 14.2799 42.8858 14.1072 42.6713 13.9939V13.9939ZM15.876 23.9074C14.8331 26.1067 13.0073 26.442 10.3613 26.3306C8.38575 26.2552 6.55875 25.6219 5.62837 24.5419C4.28625 23.013 4.43588 18.4297 4.95675 17.4229C5.96363 15.4856 15.2055 16.0819 16.4351 18.5411C16.5848 18.8021 17.4038 20.7405 15.876 23.9074V23.9074ZM37.7516 24.5419C36.8201 25.5847 34.9954 26.2181 33.0188 26.3306C30.411 26.442 28.584 26.1056 27.504 23.9074C25.9762 20.7405 26.7953 18.8021 26.9078 18.5411C28.1374 16.0819 37.4164 15.4856 38.3861 17.4229C38.9441 18.4669 39.0937 23.0501 37.7516 24.5419V24.5419Z" fill="#0062E3"/>
</g>
<defs>
<clipPath id="clip0_62_73">
<rect width="185.625" height="36" fill="white"/>
</clipPath>
</defs>
</svg>
