<svg width="142" height="36" viewBox="0 0 142 36" fill="none" xmlns="http://www.w3.org/2000/svg">
<g clip-path="url(#clip0_62_74)">
<path d="M31.5 6C30.9 6 29.9 5.89999 29 6.79999L24.8 12.5C23.7 11.7 23 11.7 21.9 11.8L27.6 6C28.4 5.2 29.5 4.89996 30.4 4.89996C27.2 1.89996 22.8 0 18 0C8.1 0 0 8.1 0 18C0 27.9 8.1 36 18 36C27.9 36 36 27.9 36 18C36.1 13.4 34.4 9.2 31.5 6ZM8.90002 26.9C7.70002 27.5 7.80001 26.4 8.20001 26.2C9.00001 25.8 9.60004 25.1 10.1 24.4C10.3 24.1 10.7 23.9 11.1 24L13.8 24.7L14 25.1L12 26.4L10.5 25.7C10 26.2 9.60002 26.5 8.90002 26.9ZM25.1 15.5C24.9 16.1 24.6 15.9 24.5 16.2C24.4 16.6 24.6 16.6 24.4 17.1C24.3 17.4 23.9 17.8 23.2 17.8C23.1 16.1 23.5 15.1 25.1 15.4C25.1 15.4 25.1 15.4 25.1 15.5ZM22.5 17.7C21.9 17.6 21.5 17.3 21.5 17.3C20.9 20.2 19.2 22 17.1 23.1L17.6 25C17.8 25.9 17.4 26.9 16.5 27.4L13.4 28.9C13.4 29.8 13.3 29.9 13.1 30.8C12.7 32.3 11.7 31.8 11.9 31.1C12.2 30.2 12.2 29.2 12 28.2C11.9 27.8 12.1 27.4 12.4 27.1L15 25.3L13.8 22.8C13.3 21.7 13.9 19.8 15 18.7L17.4 16.4L15.9 16.2C14.2 16 13.1 15.6 11.8 15L7.90002 13.5C6.90002 13.1 5.90002 13.9 5.40002 14.2C4.90002 14.5 4.50005 14.4 4.80005 13.7C5.10005 13 6.8 11.7 8.5 12.2L14 13.4C14.3 13.5 14.6 13.4 15 13.4H20.4C23.1 12 25 13 25.2 14.6C23.3 14.2 22.4 15.7 22.5 17.7Z" fill="#39C5B8"/>
<path d="M58.7341 15.4339C58.7341 18.1604 56.9699 20.2453 54.4038 21.0472C53.6019 21.2075 53.2813 21.6887 53.2813 22.1698C53.2813 22.651 53.6019 22.9717 54.4038 23.2925C57.1303 24.0944 58.7341 26.1793 58.7341 28.9057C58.7341 32.5944 55.8473 35.0001 51.5171 35.0001C47.1868 35.0001 44.3 32.5944 44.3 28.9057C44.3 25.8585 46.2246 23.7736 49.2718 23.1321C49.1114 22.9717 48.7906 22.651 48.7906 22.1698C48.7906 21.6887 48.9511 21.3679 49.2718 21.2075C46.2246 20.566 44.3 18.3207 44.3 15.4339C44.3 11.7452 47.1868 9.3396 51.5171 9.3396C53.602 9.3396 56.4888 9.82069 58.7341 10.3018V15.4339ZM51.5171 13.1886C49.9133 13.1886 48.7906 13.9905 48.7906 15.4339C48.7906 16.8773 49.9133 17.6793 51.5171 17.6793C53.1208 17.6793 54.2435 16.8773 54.2435 15.4339V13.5094C53.4416 13.349 52.4793 13.1886 51.5171 13.1886ZM51.5171 26.6604C49.9133 26.6604 48.7906 27.4623 48.7906 28.9057C48.7906 30.3491 49.9133 31.1509 51.5171 31.1509C53.1208 31.1509 54.2435 30.3491 54.2435 28.9057C54.2435 27.4623 53.2812 26.6604 51.5171 26.6604Z" fill="#39C5B8"/>
<path d="M64.3473 6.61303C63.0643 6.61303 61.9417 5.49039 61.9417 4.20736C61.9417 2.76396 63.0643 1.64136 64.3473 1.64136C65.7907 1.64136 66.9134 2.76396 66.9134 4.20736C66.9134 5.49039 65.7907 6.61303 64.3473 6.61303ZM66.5926 25.5376H62.1021V9.82059H66.5926V25.5376Z" fill="#39C5B8"/>
<path d="M78.3 26.0189C76.2151 26.0189 73.3283 25.5378 71.083 25.0567V1H75.5736V9.98112C76.3755 9.82074 77.3377 9.50001 78.3 9.50001C83.4321 9.50001 86.3189 12.868 86.3189 17.8397C86.3189 22.4906 83.4321 26.0189 78.3 26.0189ZM78.3 13.1887C77.3377 13.1887 76.3755 13.3491 75.5736 13.5095V21.8491C76.3755 22.0095 77.3377 22.1699 78.3 22.1699C80.3849 22.1699 81.6679 20.5661 81.6679 17.6793C81.6679 14.6322 80.3849 13.1887 78.3 13.1887Z" fill="#39C5B8"/>
<path d="M96.904 26.0189C94.8191 26.0189 91.9323 25.5378 89.687 25.0567V1H94.1777V9.98112C94.9796 9.82074 95.9417 9.50001 96.904 9.50001C102.036 9.50001 104.923 12.868 104.923 17.8397C104.923 22.4906 102.036 26.0189 96.904 26.0189ZM96.904 13.1887C95.9417 13.1887 94.9796 13.3491 94.1777 13.5095V21.8491C94.9796 22.0095 95.9417 22.1699 96.904 22.1699C98.9889 22.1699 100.272 20.5661 100.272 17.6793C100.272 14.6322 98.9889 13.1887 96.904 13.1887Z" fill="#39C5B8"/>
<path d="M115.348 26.0188C110.215 26.0188 107.329 22.651 107.329 17.6793C107.329 12.7076 110.376 9.3396 115.348 9.3396C120.48 9.3396 123.366 12.7076 123.366 17.6793C123.366 22.4906 120.48 26.0188 115.348 26.0188ZM115.348 13.1886C113.263 13.1886 111.98 14.7925 111.98 17.6793C111.98 20.5661 113.263 22.1698 115.348 22.1698C117.432 22.1698 118.715 20.5661 118.715 17.6793C118.715 14.6321 117.432 13.1886 115.348 13.1886Z" fill="#39C5B8"/>
<path d="M136.678 25.5378V15.434C136.678 13.9906 135.555 13.1887 133.951 13.1887C132.989 13.1887 132.027 13.3491 131.225 13.5094V25.5378H126.734V10.4623C128.98 9.82081 131.706 9.5 133.951 9.5C138.282 9.5 141.168 11.9056 141.168 15.5943V25.6982H136.678V25.5378Z" fill="#39C5B8"/>
</g>
<defs>
<clipPath id="clip0_62_74">
<rect width="142" height="36" fill="white"/>
</clipPath>
</defs>
</svg>
