<svg width="238" height="40" viewBox="0 0 238 40" fill="none" xmlns="http://www.w3.org/2000/svg">
<g clip-path="url(#clip0_272_31161)">
<path fill-rule="evenodd" clip-rule="evenodd" d="M3.35573 7.50798L4.13647 4L6.46899 6.67344L10.2005 6.43084L8.12988 9.47788C8.12988 9.47788 9.31496 12.6966 9.37613 12.8156C9.27103 12.7442 5.81918 11.9961 5.81918 11.9961L3.21752 14.2183L2.89262 10.4968L0 8.75979L3.35573 7.50798ZM9.37613 12.8156L9.37762 12.8168C9.37826 12.8174 9.37858 12.818 9.37858 12.8185C9.37858 12.8198 9.37775 12.8188 9.37613 12.8156ZM13.1354 31.7833V27.9284L16.0135 30.5509L19.3886 28.6029L18.3945 32.2564L21.9345 34.3525L18.2078 35.5072V39.4009L15.3491 36.8027L11.9546 38.4645L12.7911 34.9129L9.74575 32.9478L13.1354 31.7833ZM32.402 5.838L31.8613 9.25622L28.3359 9.08155L30.7339 11.6046L28.3941 14.3071L31.9583 14.0233L32.4917 17.5895L34.526 14.5643L37.615 16.2431L36.5676 12.8976L39.7778 11.5633L36.5045 10.28L37.4599 6.8739L34.4315 8.657L32.402 5.838ZM11.9107 26.1304C11.9751 26.1672 12.0497 26.1819 12.1232 26.1723C12.1557 26.1674 12.1875 26.1584 12.2178 26.1456C12.2998 26.1098 12.3644 26.0432 12.3975 25.96C12.4307 25.8769 12.4297 25.784 12.3948 25.7016L8.622 16.8638C8.58696 16.7814 8.52065 16.7163 8.43766 16.6829C8.35468 16.6495 8.26181 16.6504 8.1795 16.6854C8.09719 16.7205 8.03217 16.7869 7.99875 16.8699C7.96533 16.9529 7.96624 17.0458 8.00129 17.1282L11.7668 25.9685C11.7958 26.0367 11.8464 26.0936 11.9107 26.1304ZM25.0551 11.3177C25.0261 11.3213 24.9968 11.3213 24.9678 11.3177L12.876 10.391C12.8317 10.3876 12.7886 10.3756 12.749 10.3556C12.7094 10.3355 12.6741 10.3079 12.6451 10.2742C12.5867 10.2062 12.5577 10.1177 12.5644 10.0283C12.5712 9.93886 12.6132 9.85577 12.6812 9.79731C12.7491 9.73885 12.8375 9.7098 12.9269 9.71656L25.0187 10.6481C25.1017 10.6525 25.1802 10.6875 25.239 10.7463C25.2979 10.805 25.3329 10.8835 25.3374 10.9666C25.3419 11.0496 25.3156 11.1315 25.2635 11.1963C25.2114 11.2611 25.1371 11.3043 25.0551 11.3177ZM21.0545 27.0404C21.0961 27.0542 21.1401 27.0595 21.1838 27.056C21.228 27.0527 21.271 27.0407 21.3105 27.0207C21.3501 27.0008 21.3853 26.9732 21.4141 26.9396L28.3899 18.8489C28.4207 18.8154 28.4443 18.7759 28.4593 18.733C28.4743 18.69 28.4805 18.6444 28.4773 18.599C28.4741 18.5536 28.4617 18.5093 28.4408 18.4688C28.42 18.4284 28.3911 18.3926 28.3559 18.3637C28.3221 18.3335 28.2826 18.3105 28.2397 18.2958C28.1969 18.2812 28.1515 18.2752 28.1063 18.2784C28.0611 18.2816 28.017 18.2937 27.9766 18.3142C27.9362 18.3347 27.9003 18.3631 27.871 18.3977L20.905 26.4908C20.8749 26.5248 20.852 26.5644 20.8376 26.6074C20.8232 26.6504 20.8175 26.6958 20.8208 26.741C20.8242 26.7863 20.8366 26.8304 20.8573 26.8707C20.878 26.911 20.9066 26.9468 20.9413 26.976C20.9744 27.0048 21.0129 27.0267 21.0545 27.0404Z" fill="#24241A"/>
<path fill-rule="evenodd" clip-rule="evenodd" d="M181.474 7.78503H177.861V34.4345H192.467V32.1492H181.474V7.78503ZM83.0854 35.6129C89.9326 35.6129 96.324 30.3267 96.324 21.8358C96.324 13.1192 90.2745 7.98095 83.3133 7.98095C76.4685 7.98095 70.0771 13.2672 70.0771 21.7581C70.0771 30.4747 76.1267 35.6129 83.0854 35.6129ZM83.58 33.5678C78.4446 33.5678 74.2233 28.6916 74.2233 21.1953C74.2233 14.337 77.7997 10.0358 82.7047 10.0358C87.9178 10.0358 92.1779 14.8732 92.1779 22.4083C92.1779 29.3054 88.5263 33.5678 83.58 33.5678ZM50.7778 8.47644V35.1186H57.1765C62.5398 35.1186 67.1055 32.188 67.1055 27.1638C67.1055 23.2822 64.3947 20.8077 59.0435 20.7325C62.3944 20.3905 65.5464 17.916 65.5464 14.3764C65.5464 10.5337 62.7411 8.47644 57.4068 8.47644H50.7778ZM54.3906 19.932V10.4949H56.597C59.4872 10.4949 61.5045 11.9796 61.5045 15.0606C61.5045 17.9912 59.64 19.932 56.3691 19.932H54.3906ZM54.3906 33.1002V21.8727H57.1668C60.3237 21.8727 63.0999 23.6995 63.0999 27.3167C63.0999 30.6742 60.9711 33.1002 56.9389 33.1002H54.3906ZM125.784 21.8358C125.784 30.3267 119.392 35.6129 112.545 35.6129C105.586 35.6129 99.5367 30.4747 99.5367 21.7581C99.5367 13.2672 105.928 7.98095 112.775 7.98095C119.737 7.98095 125.784 13.1192 125.784 21.8358ZM103.685 21.1953C103.685 28.6916 107.909 33.5678 113.042 33.5678C117.988 33.5678 121.64 29.3054 121.64 22.4083C121.64 14.8732 117.38 10.0358 112.169 10.0358C107.262 10.0358 103.685 14.337 103.685 21.1953ZM134.269 8.47644H130.659V35.1186H134.269V25.0314L137.239 21.7587L145.759 35.1186H150.053L139.707 18.981L149.178 8.47644H146.06L134.269 21.6083V8.47644ZM163.218 35.6129C156.332 35.6129 150.513 30.4747 150.513 22.1026C150.513 13.1968 156.713 7.98095 163.332 7.98095C167.973 7.98095 172.347 10.5331 172.612 15.0988L168.429 15.584C168.087 12.0057 165.842 10.0649 162.496 10.0649C157.93 10.0649 154.204 14.2521 154.204 20.4166C154.204 27.2675 158.568 32.2529 164.358 32.2529C167.934 32.2529 171.166 30.5402 173.031 27.5344C172.498 33.0244 167.857 35.6129 163.218 35.6129ZM194.886 8.47644H198.498V24.272C198.498 29.9028 200.399 32.9474 205.496 32.9474C209.795 32.9474 212.528 30.1332 212.528 24.4225V8.47644H214.923V24.3497C214.923 31.9236 211.158 35.616 205.147 35.616C198.947 35.616 194.878 32.6854 194.878 25.7592L194.886 8.47644ZM221.241 8.47644V35.1186H227.633C232.996 35.1186 237.559 32.188 237.559 27.1638C237.559 23.2822 234.858 20.8077 229.495 20.7325C232.848 20.3905 236 17.916 236 14.3764C236 10.5337 233.195 8.47644 227.861 8.47644H221.241ZM224.854 19.932V10.4949H227.061C229.953 10.4949 231.968 11.9796 231.968 15.0606C231.968 17.9912 230.103 19.932 226.833 19.932H224.854ZM224.854 33.1002V21.8727H227.633C230.79 21.8727 233.566 23.6995 233.566 27.3167C233.566 30.6742 231.435 33.1002 227.402 33.1002H224.854Z" fill="#24241A"/>
</g>
<defs>
<clipPath id="clip0_272_31161">
<rect width="238" height="40" fill="white"/>
</clipPath>
</defs>
</svg>
