<svg version="1.1" id="Layer_1" xmlns="http://www.w3.org/2000/svg" xmlns:xlink="http://www.w3.org/1999/xlink" x="0px" y="0px"
	 width="100%" viewBox="0 0 355 103" enable-background="new 0 0 355 103" xml:space="preserve">
<path fill="#FCFCFC" opacity="1.000000" stroke="none" 
	d="
M278.000000,104.000000 
	C185.333344,104.000000 93.166687,104.000000 1.000025,104.000000 
	C1.000016,69.666679 1.000016,35.333363 1.000008,1.000034 
	C119.333305,1.000023 237.666611,1.000023 355.999939,1.000011 
	C355.999939,35.333302 355.999939,69.666603 355.999969,103.999954 
	C330.166656,104.000000 304.333344,104.000000 278.000000,104.000000 
M49.500000,4.000747 
	C34.709404,4.000747 19.918810,4.000747 4.991542,4.000747 
	C4.991542,36.166946 4.991542,67.895798 4.991542,99.697014 
	C121.100433,99.697014 236.986008,99.697014 352.743103,99.697014 
	C352.743103,67.659508 352.743103,35.925117 352.743103,4.000747 
	C251.786972,4.000747 151.143478,4.000747 49.500000,4.000747 
z"/>
<path fill="#030303" opacity="1.000000" stroke="none" 
	d="
M50.000000,4.000747 
	C151.143478,4.000747 251.786972,4.000747 352.743103,4.000747 
	C352.743103,35.925117 352.743103,67.659508 352.743103,99.697014 
	C236.986008,99.697014 121.100433,99.697014 4.991542,99.697014 
	C4.991542,67.895798 4.991542,36.166946 4.991542,4.000747 
	C19.918810,4.000747 34.709404,4.000747 50.000000,4.000747 
M242.500000,7.003777 
	C164.129578,7.003777 85.759163,7.003777 7.471406,7.003777 
	C7.471406,37.392147 7.471406,66.987061 7.471406,96.788269 
	C121.749222,96.788269 235.789581,96.788269 350.028534,96.788269 
	C350.028534,66.863258 350.028534,37.141060 350.028534,7.003777 
	C314.391479,7.003777 278.945740,7.003777 242.500000,7.003777 
z"/>
<path fill="#FEFEFE" opacity="1.000000" stroke="none" 
	d="
M243.000000,7.003777 
	C278.945740,7.003777 314.391479,7.003777 350.028534,7.003777 
	C350.028534,37.141060 350.028534,66.863258 350.028534,96.788269 
	C235.789581,96.788269 121.749222,96.788269 7.471406,96.788269 
	C7.471406,66.987061 7.471406,37.392147 7.471406,7.003777 
	C85.759163,7.003777 164.129578,7.003777 243.000000,7.003777 
M178.853027,27.506008 
	C178.853027,22.741671 178.853027,17.977333 178.853027,13.194656 
	C123.614090,13.194656 69.008263,13.194656 14.199652,13.194656 
	C14.199652,39.127491 14.199652,64.865555 14.199652,90.705933 
	C69.114700,90.705933 123.833008,90.705933 178.853027,90.705933 
	C178.853027,69.776917 178.853027,49.140667 178.853027,27.506008 
M251.705002,40.832973 
	C245.764145,35.621918 238.756531,38.745243 232.028015,37.752525 
	C232.028015,46.748379 232.028015,55.160030 232.028015,63.788895 
	C234.461304,63.788895 236.709061,63.788895 239.057190,63.788895 
	C239.227921,61.382404 239.385864,59.156071 239.638336,55.597515 
	C241.406036,57.157021 242.589478,57.813713 243.216385,58.817860 
	C246.929901,64.765907 247.056381,64.865227 254.034332,63.250534 
	C252.638748,60.616428 251.264572,58.022713 249.933304,55.510010 
	C254.704651,50.100475 255.115189,47.381565 251.705002,40.832973 
M261.263275,50.743893 
	C259.662811,55.031799 258.062347,59.319710 256.271179,64.118538 
	C259.972229,63.354340 263.548767,65.792725 265.900574,61.048946 
	C266.503479,59.832775 273.680420,59.808002 274.302734,61.032330 
	C276.801636,65.948776 280.440613,63.323490 284.010010,63.964909 
	C281.104584,56.434906 278.291382,49.384789 275.681183,42.260319 
	C274.642761,39.425945 273.661163,37.604458 269.902985,37.661942 
	C266.290710,37.717197 265.539825,39.608894 264.660858,42.188854 
	C263.754883,44.848080 262.653870,47.440868 261.263275,50.743893 
M300.674561,45.559601 
	C300.674561,43.114845 300.674561,40.670090 300.674561,38.032272 
	C297.921906,38.032272 295.670837,38.032272 292.979584,38.032272 
	C292.979584,41.574970 292.979889,45.017292 292.979523,48.459610 
	C292.978668,56.368412 292.978546,56.368412 285.619019,57.450592 
	C285.619019,59.503910 285.619019,61.576923 285.619019,63.619308 
	C296.993958,64.942284 300.617279,61.845634 300.673431,50.988300 
	C300.681152,49.497528 300.674530,48.006680 300.674561,45.559601 
z"/>
<path fill="#010101" opacity="1.000000" stroke="none" 
	d="
M178.853027,28.005211 
	C178.853027,49.140667 178.853027,69.776917 178.853027,90.705933 
	C123.833008,90.705933 69.114700,90.705933 14.199652,90.705933 
	C14.199652,64.865555 14.199652,39.127491 14.199652,13.194656 
	C69.008263,13.194656 123.614090,13.194656 178.853027,13.194656 
	C178.853027,17.977333 178.853027,22.741671 178.853027,28.005211 
M61.055416,52.826771 
	C65.391647,52.570717 69.727882,52.314663 74.363251,52.040947 
	C74.363251,55.256283 74.345284,57.572357 74.367340,59.888046 
	C74.402946,63.627014 74.414078,63.626907 77.787239,63.584980 
	C77.787239,55.149338 77.787239,46.712029 77.787239,37.988125 
	C76.850044,37.988125 75.429207,37.877022 75.407516,38.004322 
	C74.816650,41.472065 74.368698,44.964157 73.869400,48.654865 
	C69.700485,48.654865 65.308701,48.654865 60.786781,48.654865 
	C60.786781,45.690918 60.962692,43.013710 60.690636,40.382824 
	C60.596386,39.471405 59.390419,38.674946 58.692238,37.825981 
	C58.172077,38.677521 57.213173,39.522465 57.200268,40.381622 
	C57.083336,48.165710 57.131760,55.952286 57.131760,63.738132 
	C57.561707,63.982471 57.991650,64.226807 58.421597,64.471146 
	C59.209694,63.555271 60.551918,62.709423 60.678234,61.709911 
	C61.009422,59.089310 60.810265,56.401688 61.055416,52.826771 
M117.385521,63.829170 
	C118.359268,63.029816 120.059784,62.320942 120.172638,61.414406 
	C120.533852,58.513027 120.306778,55.538406 120.306778,52.348969 
	C122.751602,52.224480 124.705513,52.124992 125.575829,52.080677 
	C130.996841,55.204311 129.693420,63.237503 137.611084,64.366730 
	C134.801865,59.367714 132.462128,55.204163 130.534027,51.773094 
	C132.641846,46.935204 134.494949,42.681965 136.348038,38.428730 
	C135.737167,38.065712 135.126297,37.702694 134.515427,37.339676 
	C133.383301,39.045353 131.928741,40.620754 131.177414,42.480286 
	C128.562088,48.953388 127.260330,49.767487 120.842194,48.499626 
	C118.713654,45.188347 122.801598,40.240501 117.041168,37.105637 
	C117.041168,46.408695 117.041168,54.701370 117.385521,63.829170 
M102.999001,47.429180 
	C101.992142,44.982414 101.087105,42.485817 99.926384,40.114365 
	C99.485733,39.214081 98.338387,37.909489 97.722458,38.014690 
	C96.707092,38.188103 95.428619,39.171616 95.013527,40.137157 
	C91.684372,47.881107 88.531807,55.700981 85.291161,63.580402 
	C90.753868,65.383759 89.072433,59.638393 91.931366,58.051304 
	C93.847557,58.051304 96.344574,58.215767 98.810829,58.010571 
	C102.050728,57.741001 104.538803,58.126778 105.513260,61.931114 
	C105.770782,62.936474 107.621284,63.533791 108.740326,64.318474 
	C108.998222,63.970196 109.256119,63.621922 109.514015,63.273647 
	C107.419571,58.237080 105.325127,53.200508 102.999001,47.429180 
z"/>
<path fill="#040404" opacity="1.000000" stroke="none" 
	d="
M251.947479,41.146973 
	C255.115189,47.381565 254.704651,50.100475 249.933304,55.510010 
	C251.264572,58.022713 252.638748,60.616428 254.034332,63.250534 
	C247.056381,64.865227 246.929901,64.765907 243.216385,58.817860 
	C242.589478,57.813713 241.406036,57.157021 239.638336,55.597515 
	C239.385864,59.156071 239.227921,61.382404 239.057190,63.788895 
	C236.709061,63.788895 234.461304,63.788895 232.028015,63.788895 
	C232.028015,55.160030 232.028015,46.748379 232.028015,37.752525 
	C238.756531,38.745243 245.764145,35.621918 251.947479,41.146973 
M246.168304,48.188309 
	C246.420395,42.431648 242.424805,44.320988 239.324005,43.994553 
	C239.324005,46.339661 239.324005,48.232925 239.324005,51.123657 
	C241.833557,50.302830 243.867996,49.637402 246.168304,48.188309 
z"/>
<path fill="#060606" opacity="1.000000" stroke="none" 
	d="
M261.450745,50.403309 
	C262.653870,47.440868 263.754883,44.848080 264.660858,42.188854 
	C265.539825,39.608894 266.290710,37.717197 269.902985,37.661942 
	C273.661163,37.604458 274.642761,39.425945 275.681183,42.260319 
	C278.291382,49.384789 281.104584,56.434906 284.010010,63.964909 
	C280.440613,63.323490 276.801636,65.948776 274.302734,61.032330 
	C273.680420,59.808002 266.503479,59.832775 265.900574,61.048946 
	C263.548767,65.792725 259.972229,63.354340 256.271179,64.118538 
	C258.062347,59.319710 259.662811,55.031799 261.450745,50.403309 
M268.219940,54.833397 
	C269.686462,54.833397 271.153015,54.833397 273.123169,54.833397 
	C272.191803,52.231647 271.401855,50.024925 270.114349,46.428356 
	C268.992310,49.952824 268.270905,52.218800 268.219940,54.833397 
z"/>
<path fill="#0D0D0D" opacity="1.000000" stroke="none" 
	d="
M300.674561,46.037735 
	C300.674530,48.006680 300.681152,49.497528 300.673431,50.988300 
	C300.617279,61.845634 296.993958,64.942284 285.619019,63.619308 
	C285.619019,61.576923 285.619019,59.503910 285.619019,57.450592 
	C292.978546,56.368412 292.978668,56.368412 292.979523,48.459610 
	C292.979889,45.017292 292.979584,41.574970 292.979584,38.032272 
	C295.670837,38.032272 297.921906,38.032272 300.674561,38.032272 
	C300.674561,40.670090 300.674561,43.114845 300.674561,46.037735 
z"/>
<path fill="#DBDBDB" opacity="1.000000" stroke="none" 
	d="
M60.938934,53.283772 
	C60.810265,56.401688 61.009422,59.089310 60.678234,61.709911 
	C60.551918,62.709423 59.209694,63.555271 58.421597,64.471146 
	C57.991650,64.226807 57.561707,63.982471 57.131760,63.738132 
	C57.131760,55.952286 57.083336,48.165710 57.200268,40.381622 
	C57.213173,39.522465 58.172077,38.677521 58.692238,37.825981 
	C59.390419,38.674946 60.596386,39.471405 60.690636,40.382824 
	C60.962692,43.013710 60.786781,45.690918 60.786781,48.654865 
	C65.308701,48.654865 69.700485,48.654865 73.869400,48.654865 
	C74.368698,44.964157 74.816650,41.472065 75.407516,38.004322 
	C75.429207,37.877022 76.850044,37.988125 77.787239,37.988125 
	C77.787239,46.712029 77.787239,55.149338 77.787239,63.584980 
	C74.414078,63.626907 74.402946,63.627014 74.367340,59.888046 
	C74.345284,57.572357 74.363251,55.256283 74.363251,52.040947 
	C69.727882,52.314663 65.391647,52.570717 60.938934,53.283772 
z"/>
<path fill="#F5F5F5" opacity="1.000000" stroke="none" 
	d="
M117.213348,63.411606 
	C117.041168,54.701370 117.041168,46.408695 117.041168,37.105637 
	C122.801598,40.240501 118.713654,45.188347 120.842194,48.499626 
	C127.260330,49.767487 128.562088,48.953388 131.177414,42.480286 
	C131.928741,40.620754 133.383301,39.045353 134.515427,37.339676 
	C135.126297,37.702694 135.737167,38.065712 136.348038,38.428730 
	C134.494949,42.681965 132.641846,46.935204 130.534027,51.773094 
	C132.462128,55.204163 134.801865,59.367714 137.611084,64.366730 
	C129.693420,63.237503 130.996841,55.204311 125.575829,52.080677 
	C124.705513,52.124992 122.751602,52.224480 120.306778,52.348969 
	C120.306778,55.538406 120.533852,58.513027 120.172638,61.414406 
	C120.059784,62.320942 118.359268,63.029816 117.213348,63.411606 
z"/>
<path fill="#F0F0F0" opacity="1.000000" stroke="none" 
	d="
M103.114838,47.796562 
	C105.325127,53.200508 107.419571,58.237080 109.514015,63.273647 
	C109.256119,63.621922 108.998222,63.970196 108.740326,64.318474 
	C107.621284,63.533791 105.770782,62.936474 105.513260,61.931114 
	C104.538803,58.126778 102.050728,57.741001 98.810829,58.010571 
	C96.344574,58.215767 93.847557,58.051304 91.931366,58.051304 
	C89.072433,59.638393 90.753868,65.383759 85.291161,63.580402 
	C88.531807,55.700981 91.684372,47.881107 95.013527,40.137157 
	C95.428619,39.171616 96.707092,38.188103 97.722458,38.014690 
	C98.338387,37.909489 99.485733,39.214081 99.926384,40.114365 
	C101.087105,42.485817 101.992142,44.982414 103.114838,47.796562 
M93.781128,51.591545 
	C93.470871,52.621132 93.160622,53.650719 92.816734,54.791912 
	C96.082161,54.791912 98.980690,54.791912 102.452766,54.791912 
	C100.776611,50.681725 99.249489,46.936977 97.486343,42.613480 
	C96.179352,45.710640 95.102745,48.261848 93.781128,51.591545 
z"/>
<path fill="#EAEAEA" opacity="1.000000" stroke="none" 
	d="
M246.035370,48.580139 
	C243.867996,49.637402 241.833557,50.302830 239.324005,51.123657 
	C239.324005,48.232925 239.324005,46.339661 239.324005,43.994553 
	C242.424805,44.320988 246.420395,42.431648 246.035370,48.580139 
z"/>
<path fill="#D4D4D4" opacity="1.000000" stroke="none" 
	d="
M267.884705,54.659088 
	C268.270905,52.218800 268.992310,49.952824 270.114349,46.428356 
	C271.401855,50.024925 272.191803,52.231647 273.123169,54.833397 
	C271.153015,54.833397 269.686462,54.833397 267.884705,54.659088 
z"/>
<path fill="#0C0C0C" opacity="1.000000" stroke="none" 
	d="
M93.903641,51.202301 
	C95.102745,48.261848 96.179352,45.710640 97.486343,42.613480 
	C99.249489,46.936977 100.776611,50.681725 102.452766,54.791912 
	C98.980690,54.791912 96.082161,54.791912 92.816734,54.791912 
	C93.160622,53.650719 93.470871,52.621132 93.903641,51.202301 
z"/>
</svg>